<svg width="32" height="32" viewBox="0 0 32 32" fill="none" xmlns="http://www.w3.org/2000/svg">
<path d="M22.6667 2.66663H9.33335C5.65146 2.66663 2.66669 5.6514 2.66669 9.33329V22.6666C2.66669 26.3485 5.65146 29.3333 9.33335 29.3333H22.6667C26.3486 29.3333 29.3334 26.3485 29.3334 22.6666V9.33329C29.3334 5.6514 26.3486 2.66663 22.6667 2.66663Z" stroke="#FFFAF1" stroke-width="2" stroke-linecap="round" stroke-linejoin="round"/>
<path d="M21.3334 15.1598C21.4979 16.2695 21.3083 17.4027 20.7916 18.3984C20.275 19.3942 19.4575 20.2016 18.4555 20.706C17.4535 21.2103 16.3179 21.3859 15.2103 21.2076C14.1028 21.0295 13.0796 20.5066 12.2864 19.7134C11.4932 18.9202 10.9703 17.897 10.792 16.7894C10.6138 15.6819 10.7894 14.5463 11.2937 13.5443C11.7981 12.5423 12.6055 11.7248 13.6012 11.2081C14.597 10.6915 15.7303 10.5019 16.84 10.6665C17.9719 10.8343 19.0198 11.3617 19.8288 12.1709C20.638 12.98 21.1655 14.0279 21.3334 15.1598Z" stroke="#FFFAF1" stroke-width="2" stroke-linecap="round" stroke-linejoin="round"/>
<path d="M23.3333 8.66663H23.3466" stroke="#FFFAF1" stroke-width="2" stroke-linecap="round" stroke-linejoin="round"/>
</svg>
