<svg width="32" height="32" viewBox="0 0 32 32" fill="none" xmlns="http://www.w3.org/2000/svg">
<path d="M15 22.6667H9.33335C7.48891 22.6667 5.91669 22.0167 4.61669 20.7167C3.31669 19.4167 2.66669 17.8445 2.66669 16C2.66669 14.1556 3.31669 12.5834 4.61669 11.2834C5.91669 9.98337 7.48891 9.33337 9.33335 9.33337H15V11.3334H9.33335C8.04446 11.3334 6.94446 11.7889 6.03335 12.7C5.12224 13.6112 4.66669 14.7112 4.66669 16C4.66669 17.2889 5.12224 18.3889 6.03335 19.3C6.94446 20.2112 8.04446 20.6667 9.33335 20.6667H15V22.6667ZM10.8334 17V15H21.1667V17H10.8334ZM17 22.6667V20.6667H22.6667C23.9556 20.6667 25.0556 20.2112 25.9667 19.3C26.8778 18.3889 27.3334 17.2889 27.3334 16C27.3334 14.7112 26.8778 13.6112 25.9667 12.7C25.0556 11.7889 23.9556 11.3334 22.6667 11.3334H17V9.33337H22.6667C24.5111 9.33337 26.0834 9.98337 27.3834 11.2834C28.6834 12.5834 29.3334 14.1556 29.3334 16C29.3334 17.8445 28.6834 19.4167 27.3834 20.7167C26.0834 22.0167 24.5111 22.6667 22.6667 22.6667H17Z" fill="white"/>
</svg>
